<svg width="14" height="14" viewBox="0 0 14 14" fill="none" xmlns="http://www.w3.org/2000/svg">
<path d="M11.25 1.5H2.75C2.05964 1.5 1.5 2.05964 1.5 2.75V11.0625V11.25C1.5 11.9404 2.05964 12.5 2.75 12.5H11.25C11.9404 12.5 12.5 11.9404 12.5 11.25V6.6875V2.75C12.5 2.05964 11.9404 1.5 11.25 1.5Z" stroke="#1064E5"/>
<path d="M1.5 10.6099L4.54005 7.56987C4.80397 7.30595 5.22179 7.27626 5.52038 7.5002L6.47962 8.21963C6.77821 8.44358 7.19603 8.41388 7.45995 8.14996L9.8531 5.75682C10.1878 5.42215 10.7449 5.47732 11.0075 5.87112L12.5 8.10992" stroke="#1064E5" stroke-linecap="round" stroke-linejoin="round"/>
<path d="M5 4.5C5 4.77614 4.77614 5 4.5 5C4.22386 5 4 4.77614 4 4.5C4 4.22386 4.22386 4 4.5 4C4.77614 4 5 4.22386 5 4.5Z" stroke="#1064E5"/>
</svg>
