<svg width="14" height="14" viewBox="0 0 14 14" fill="none" xmlns="http://www.w3.org/2000/svg">
<path d="M5.625 10.4375H2.25C1.83579 10.4375 1.5 10.1017 1.5 9.6875V2.25C1.5 1.83579 1.83579 1.5 2.25 1.5H7.625C8.03921 1.5 8.375 1.83579 8.375 2.25V3.5625M8.375 3.5625H6.375C5.96079 3.5625 5.625 3.89829 5.625 4.3125V11.75C5.625 12.1642 5.96079 12.5 6.375 12.5H11.75C12.1642 12.5 12.5 12.1642 12.5 11.75V4.3125C12.5 3.89829 12.1642 3.5625 11.75 3.5625H8.375ZM7.5 5.5H10.5M7.5 7.5H10.5M7.5 9.5H10.5" stroke="#1064E5" stroke-linecap="round" stroke-linejoin="round"/>
</svg>
