<svg width="14" height="14" viewBox="0 0 14 14" fill="none" xmlns="http://www.w3.org/2000/svg">
<path d="M1.5 2.25C1.5 1.83579 1.83579 1.5 2.25 1.5H4.75C5.16421 1.5 5.5 1.83579 5.5 2.25V4.75C5.5 5.16421 5.16421 5.5 4.75 5.5H2.25C1.83579 5.5 1.5 5.16421 1.5 4.75V2.25Z" stroke="#1064E5" stroke-linecap="round" stroke-linejoin="round"/>
<path d="M1.5 9.25C1.5 8.83579 1.83579 8.5 2.25 8.5H4.75C5.16421 8.5 5.5 8.83579 5.5 9.25V11.75C5.5 12.1642 5.16421 12.5 4.75 12.5H2.25C1.83579 12.5 1.5 12.1642 1.5 11.75V9.25Z" stroke="#1064E5" stroke-linecap="round" stroke-linejoin="round"/>
<path d="M8.5 2.25C8.5 1.83579 8.83579 1.5 9.25 1.5H11.75C12.1642 1.5 12.5 1.83579 12.5 2.25V4.75C12.5 5.16421 12.1642 5.5 11.75 5.5H9.25C8.83579 5.5 8.5 5.16421 8.5 4.75V2.25Z" stroke="#1064E5" stroke-linecap="round" stroke-linejoin="round"/>
<path d="M8.5 9.25C8.5 8.83579 8.83579 8.5 9.25 8.5H11.75C12.1642 8.5 12.5 8.83579 12.5 9.25V11.75C12.5 12.1642 12.1642 12.5 11.75 12.5H9.25C8.83579 12.5 8.5 12.1642 8.5 11.75V9.25Z" stroke="#1064E5" stroke-linecap="round" stroke-linejoin="round"/>
</svg>
