<svg width="14" height="14" viewBox="0 0 14 14" fill="none" xmlns="http://www.w3.org/2000/svg">
<path d="M3.53962 3.75V4.25H4.01102L4.03875 3.77942L3.53962 3.75ZM10.5 3.95312L11 3.95314V3.95312H10.5ZM10.5 4.78125L10 4.78124L9.99999 5.28125H10.5V4.78125ZM6.50002 13.5C6.50002 13.7761 6.72388 14 7.00002 14C7.27617 14 7.50002 13.7761 7.50002 13.5H6.50002ZM7.00002 10.5L7.33587 10.1296C7.14531 9.95681 6.85475 9.95681 6.66418 10.1296L7.00002 10.5ZM5.44542 11.2346C5.24084 11.4201 5.22536 11.7363 5.41084 11.9408C5.59633 12.1454 5.91253 12.1609 6.11711 11.9754L5.44542 11.2346ZM7.88292 11.9754C8.08749 12.1609 8.4037 12.1454 8.58918 11.9408C8.77466 11.7363 8.75918 11.4201 8.55461 11.2346L7.88292 11.9754ZM3.5 8C2.85493 8 2.21439 7.78331 1.74447 7.41782C1.27997 7.05655 1 6.56788 1 6H0C0 6.93212 0.470029 7.69345 1.13053 8.20718C1.78561 8.71669 2.64507 9 3.5 9V8ZM1 6C1 5.42641 1.24994 5.01398 1.67308 4.72573C2.11577 4.42417 2.76746 4.25 3.53962 4.25V3.25C2.63651 3.25 1.7684 3.45083 1.11009 3.89927C0.432242 4.36102 0 5.07359 0 6H1ZM13 6.60938C13 7.32342 12.3373 8 11.5167 8V9C12.8499 9 14 7.91462 14 6.60938H13ZM11.55 5.28125C12.3817 5.28125 13 5.90578 13 6.60938H14C14 5.29368 12.8722 4.28125 11.55 4.28125V5.28125ZM7.00002 1C8.75498 1 10 2.31899 10 3.95312H11C11 1.77304 9.31357 0 7.00002 0V1ZM3.5 9H11.5167V8H3.5V9ZM11.55 4.28125H10.5V5.28125H11.55V4.28125ZM10 3.95311L10 4.78124L11 4.78126L11 3.95314L10 3.95311ZM4.03875 3.77942C4.13093 2.21553 5.31074 1 7.00002 1V0C4.75939 0 3.1625 1.65035 3.04049 3.72058L4.03875 3.77942ZM7.50002 13.5V10.5H6.50002V13.5H7.50002ZM6.66418 10.1296L5.44542 11.2346L6.11711 11.9754L7.33587 10.8704L6.66418 10.1296ZM6.66418 10.8704L7.88292 11.9754L8.55461 11.2346L7.33587 10.1296L6.66418 10.8704Z" fill="#1064E5"/>
</svg>
