<svg width="14" height="14" viewBox="0 0 14 14" fill="none" xmlns="http://www.w3.org/2000/svg">
<path d="M7.8746 1.31365L7.42202 1.45267L7.8746 1.31365C7.60935 0.450142 6.39033 0.450131 6.12508 1.31365L5.0617 4.77551H1.58263C0.701076 4.77551 0.336866 5.8923 1.02583 6.42178L3.8818 8.61666L2.79867 12.1428C2.53954 12.9864 3.51381 13.692 4.23023 13.1414L6.99984 11.0129L9.76945 13.1414C10.4859 13.692 11.4601 12.9864 11.201 12.1428L10.1179 8.61666L12.9738 6.42178C13.6628 5.89229 13.2986 4.77551 12.417 4.77551H8.93798L7.8746 1.31365ZM3.92679 8.65123C3.92673 8.65119 3.92668 8.65114 3.92663 8.6511L3.92679 8.65123Z" stroke="#1064E5" stroke-linecap="round" stroke-linejoin="round"/>
</svg>
