<svg width="14" height="14" viewBox="0 0 14 14" fill="none" xmlns="http://www.w3.org/2000/svg">
<path d="M6.94582 2.2441C6.04762 0.723087 4.38026 0.356038 3.00193 0.914414C1.59146 1.48581 0.5087 2.99901 0.686109 5.11924C0.851439 7.09512 1.97746 8.87542 3.16825 10.2461C4.36666 11.6256 5.6818 12.6486 6.32214 13.1123C6.72968 13.4074 7.27097 13.4074 7.67852 13.1123C8.31886 12.6486 9.634 11.6256 10.8324 10.2461C12.0232 8.87542 13.1492 7.09512 13.3145 5.11924C13.492 2.99901 12.4092 1.48581 10.9987 0.914414C9.62039 0.356038 7.95303 0.72309 7.05484 2.2441C7.03843 2.24638 7.01991 2.24773 7.00033 2.24773C6.98075 2.24773 6.96222 2.24638 6.94582 2.2441Z" stroke="#1064E5" stroke-linecap="round" stroke-linejoin="round"/>
</svg>
