<svg width="120" height="37" viewBox="0 0 120 37" fill="none" xmlns="http://www.w3.org/2000/svg">
<path d="M66.366 6.04883C67.0709 6.04883 67.6492 6.26571 68.1011 6.69949C68.5529 7.11519 68.7788 7.6574 68.7788 8.32613C68.7788 8.99487 68.5529 9.54612 68.1011 9.97989C67.6492 10.4137 67.0709 10.6306 66.366 10.6306C65.6792 10.6306 65.1008 10.4137 64.6309 9.97989C64.179 9.54612 63.9531 8.99487 63.9531 8.32613C63.9531 7.67548 64.179 7.13326 64.6309 6.69949C65.1008 6.26571 65.6792 6.04883 66.366 6.04883ZM64.414 27.8459V12.935H68.2909V27.8459H64.414Z" fill="white"/>
<path d="M81.5379 12.9347H85.4148V27.6559C85.4148 29.8609 84.7461 31.6231 83.4086 32.9425C82.0711 34.2799 80.2818 34.9487 78.0407 34.9487C76.1067 34.9487 74.4259 34.4607 72.998 33.4847C71.5883 32.5087 70.7478 31.0899 70.4767 29.2283H74.4891C74.8868 30.7465 76.0345 31.5056 77.9322 31.5056C80.336 31.5056 81.5379 30.2585 81.5379 27.7643V25.6226C80.3812 27.1769 78.8178 27.9541 76.8478 27.9541C74.8958 27.9541 73.2692 27.2311 71.9678 25.7852C70.6846 24.3393 70.043 22.5048 70.043 20.2817C70.043 18.0586 70.6936 16.2241 71.9949 14.7782C73.2963 13.3323 74.9139 12.6094 76.8478 12.6094C78.8359 12.6094 80.3993 13.4046 81.5379 14.9951V12.9347ZM77.7153 24.267C78.8178 24.267 79.7306 23.8965 80.4535 23.1555C81.1765 22.4144 81.5379 21.4565 81.5379 20.2817C81.5379 19.125 81.1674 18.1761 80.4264 17.4351C79.7034 16.676 78.7998 16.2964 77.7153 16.2964C76.6309 16.2964 75.7272 16.676 75.0042 17.4351C74.2994 18.1761 73.9469 19.125 73.9469 20.2817C73.9469 21.4385 74.2994 22.3964 75.0042 23.1555C75.7272 23.8965 76.6309 24.267 77.7153 24.267Z" fill="white"/>
<path d="M54.6298 20.2973C53.2381 20.0082 52.1176 19.719 51.2681 19.4298C50.4186 19.1406 49.6414 18.7701 48.9366 18.3183C48.2317 17.8845 47.7346 17.3423 47.4455 16.6916C47.1382 16.041 46.9846 15.2547 46.9846 14.333C46.9846 13.2847 47.2105 12.3539 47.6623 11.5406C48.0961 10.7453 48.6835 10.1308 49.4246 9.69703C50.1475 9.26325 50.9156 8.93792 51.729 8.72104C52.5242 8.50415 53.3466 8.39571 54.1961 8.39571C56.7806 8.39571 58.7507 9.00118 60.1062 10.2121C61.4437 11.4412 62.2299 12.9774 62.4648 14.821L58.5609 14.821C58.2898 13.845 57.8289 13.1311 57.1782 12.6792C56.5095 12.2274 55.5245 12.0014 54.2232 12.0014C53.1387 12.0014 52.3164 12.1912 51.7561 12.5708C51.1777 12.9503 50.8885 13.4835 50.8885 14.1703C50.8885 14.6041 51.0512 14.9475 51.3765 15.2005C51.6838 15.4716 52.0633 15.6704 52.5152 15.797C52.967 15.9235 53.7713 16.1132 54.928 16.3663C55.0184 16.3844 55.0907 16.3934 55.1449 16.3934C55.1811 16.4115 55.2443 16.4295 55.3347 16.4476C55.407 16.4657 55.4793 16.4838 55.5516 16.5018C56.5276 16.7006 57.3499 16.9175 58.0187 17.1525C58.6874 17.3875 59.3471 17.7128 59.9978 18.1285C60.6484 18.5442 61.1455 19.0774 61.4889 19.728C61.8142 20.3787 61.9769 21.1559 61.9768 22.0596C61.9768 23.9392 61.272 25.4032 59.8622 26.4515C58.4524 27.4998 56.7716 28.0239 54.8196 28.0239C52.4338 28.0239 50.6265 27.4727 49.3974 26.3702C48.1503 25.2857 47.4093 23.876 47.1744 22.1409L51.1054 22.1409C51.5753 23.6591 52.8044 24.4182 54.7925 24.4182C55.895 24.4182 56.7174 24.2103 57.2596 23.7946C57.8018 23.397 58.0729 22.8729 58.0729 22.2222C58.0729 21.6981 57.847 21.3185 57.3951 21.0836C56.9252 20.8486 56.0034 20.5865 54.6298 20.2973Z" fill="white"/>
<path fill-rule="evenodd" clip-rule="evenodd" d="M94.0939 12.9282H87.209V16.3707H90.2493V29.9887H94.4562V21.4867C94.4562 18.7997 95.6722 17.4563 98.1041 17.4563C99.1828 17.4563 99.9575 17.7308 100.428 18.28C100.899 18.8291 101.134 19.6529 101.134 20.7512V29.9887H105.341V19.8392C105.341 17.8583 104.821 16.2991 103.782 15.1616C102.743 14.0241 101.311 13.4553 99.4868 13.4553C97.3491 13.4553 95.6722 14.3084 94.4562 16.0147V13.8083H94.0939V12.9282Z" fill="white"/>
<path fill-rule="evenodd" clip-rule="evenodd" d="M120 12.9351H116.123V20.7701C116.123 21.981 115.834 22.9028 115.256 23.5354C114.695 24.168 113.882 24.4843 112.816 24.4843C111.84 24.4843 111.135 24.2312 110.701 23.7252C110.285 23.2191 110.078 22.46 110.078 21.4478V12.9351H106.201V22.2883C106.201 24.0957 106.671 25.5325 107.611 26.5989C108.568 27.6472 109.87 28.1713 111.514 28.1713C113.448 28.1713 114.985 27.3761 116.123 25.7856V27.846H116.123V28.2217C116.123 29.3444 115.863 30.158 115.349 30.6914C114.836 31.2238 114.055 31.5032 112.977 31.5032C112.125 31.5032 111.459 31.3326 110.965 31.0059C110.474 30.6812 110.139 30.1928 109.964 29.5269L109.934 29.4124H105.955L105.981 29.5879C106.235 31.3345 107.027 32.6768 108.36 33.5996L108.361 33.6001C109.7 34.5155 111.274 34.9709 113.077 34.9709C115.167 34.9709 116.851 34.3461 118.113 33.0844C119.375 31.8394 120 30.1796 120 28.1222V27.846H120V12.9351Z" fill="white"/>
<rect width="36.8616" height="36.8616" rx="9.92226" fill="#1064E5"/>
<path fill-rule="evenodd" clip-rule="evenodd" d="M28.6287 29.0092C26.0261 31.395 22.7276 32.5879 18.7333 32.5879C14.504 32.5879 11.0338 31.2685 8.32271 28.6297C5.62971 26.009 4.2832 22.593 4.2832 18.3818C4.2832 14.1887 5.59356 10.7908 8.21427 8.18813C10.8531 5.5855 14.2509 4.28418 18.4079 4.28418C20.5406 4.28418 22.4655 4.64566 24.1825 5.36861L23.5048 8.54058C22.0588 7.87184 20.3961 7.53748 18.5164 7.53748C15.3173 7.53748 12.7237 8.50443 10.7356 10.4383C8.76552 12.3722 7.7805 15.0291 7.7805 18.4089C7.7805 21.7706 8.79263 24.4275 10.8169 26.3795C12.8593 28.3495 15.5251 29.3346 18.8146 29.3346C20.2605 29.3346 21.5799 29.1267 22.7728 28.711C23.9837 28.3134 25.0591 27.6989 25.999 26.8675C26.9569 26.0541 27.6979 24.9607 28.222 23.5871C28.4983 22.8871 28.7042 22.1309 28.8397 21.3183C29.0042 19.7636 29.1057 18.1934 28.8361 16.9747C28.6911 16.3193 28.4708 15.9316 28.2407 15.7102C28.045 15.5218 27.7005 15.3141 26.9695 15.2999C25.6723 15.2746 24.2259 16.0971 22.7514 17.6404C21.3223 19.1361 20.1189 21.0377 19.3808 22.4692C19.0935 23.0266 18.8949 23.4856 18.8949 23.4856L18.8183 23.4082L18.8178 23.4092L12.939 17.4941L15.4273 15.0058L18.18 17.6983C18.7779 16.85 19.4574 15.994 20.2071 15.2094C21.8991 13.4384 24.2424 11.727 27.0381 11.7815C28.5035 11.8101 29.7449 12.2741 30.6806 13.1744C31.5819 14.0416 32.0385 15.1594 32.272 16.2145C32.4559 17.0461 32.5208 17.9392 32.5205 18.8156H32.5327V19.2765C32.5327 20.3281 32.4471 21.3234 32.2761 22.2622L32.271 22.3075L32.2679 22.3071C31.7666 25.0107 30.5536 27.2448 28.6287 29.0092Z" fill="white"/>
</svg>
