<svg width="14" height="14" viewBox="0 0 14 14" fill="none" xmlns="http://www.w3.org/2000/svg">
<path d="M3.87734 10.783L4.19586 10.3976L3.87734 10.783C4.04098 10.9183 4.05388 11.1037 3.9972 11.2019C3.66682 11.7741 3.83438 12.5839 4.52493 12.8752C5.05298 13.0979 5.61726 13.2516 6.20623 13.3248C6.94886 13.4172 7.50033 12.8019 7.50033 12.1397C7.50033 12.0271 7.60345 11.8734 7.81356 11.8383C8.1248 11.7863 8.42621 11.7051 8.7148 11.5974C8.91493 11.5227 9.08127 11.6045 9.13748 11.7019C9.46865 12.2755 10.2545 12.5325 10.851 12.0796C11.3143 11.7279 11.7279 11.3142 12.0796 10.8509C12.5325 10.2544 12.2755 9.46859 11.7019 9.13742C11.6045 9.08122 11.5227 8.91487 11.5974 8.71473C11.7051 8.42617 11.7863 8.12477 11.8383 7.81356C11.8734 7.60345 12.0271 7.50033 12.1397 7.50033C12.8019 7.50033 13.4172 6.94886 13.3248 6.20623C13.2516 5.61733 13.098 5.05311 12.8753 4.52511C12.584 3.83456 11.7742 3.66694 11.202 3.99734C11.1038 4.05401 10.9184 4.04112 10.7831 3.87746C10.5846 3.63719 10.3636 3.41618 10.1233 3.21762C9.95967 3.08238 9.94678 2.89693 10.0034 2.79876C10.3338 2.22653 10.1663 1.41675 9.47572 1.12545C8.94767 0.90271 8.38339 0.74906 7.79442 0.675803C7.05179 0.583434 6.50033 1.19871 6.50033 1.86096C6.50033 1.97359 6.3972 2.12725 6.18709 2.16234C5.8759 2.2143 5.57453 2.29557 5.28598 2.40321C5.08584 2.47788 4.91949 2.39609 4.86328 2.29873C4.53212 1.72514 3.7463 1.46813 3.14976 1.921C2.68645 2.27274 2.27278 2.6864 1.92104 3.14971C1.46816 3.74624 1.72517 4.53206 2.29876 4.86323C2.39612 4.91944 2.4779 5.08578 2.40324 5.28591C2.29558 5.57448 2.2143 5.87588 2.16234 6.18709C2.12725 6.3972 1.97359 6.50033 1.86096 6.50033C1.19871 6.50033 0.583434 7.05179 0.675803 7.79442C0.749069 8.38345 0.902745 8.9478 1.12553 9.4759C1.41685 10.1665 2.22665 10.3339 2.79885 10.0036C2.89702 9.94691 3.08249 9.95981 3.21771 10.1234C3.41622 10.3636 3.63716 10.5845 3.87734 10.783Z" stroke="#1064E5" stroke-linecap="round" stroke-linejoin="round"/>
<path d="M9.5 7C9.5 8.38071 8.38071 9.5 7 9.5C5.61929 9.5 4.5 8.38071 4.5 7C4.5 5.61929 5.61929 4.5 7 4.5C8.38071 4.5 9.5 5.61929 9.5 7Z" stroke="#1064E5" stroke-linecap="round" stroke-linejoin="round"/>
</svg>
