<svg width="14" height="14" viewBox="0 0 14 14" fill="none" xmlns="http://www.w3.org/2000/svg">
<path d="M5.33333 2.91667C5.33333 3.30614 5.24157 3.67274 5.07894 3.99737C4.68157 4.79057 3.86205 5.33333 2.91667 5.33333C1.58198 5.33333 0.5 4.25135 0.5 2.91667C0.5 1.58198 1.58198 0.5 2.91667 0.5C4.25135 0.5 5.33333 1.58198 5.33333 2.91667Z" stroke="#1064E5" stroke-linejoin="round"/>
<path d="M13.4998 6.41667C13.4998 6.80614 13.4081 7.17274 13.2454 7.49737C12.8481 8.29057 12.0286 8.83333 11.0832 8.83333C9.74848 8.83333 8.6665 7.75135 8.6665 6.41667C8.6665 5.08198 9.74848 4 11.0832 4C12.4179 4 13.4998 5.08198 13.4998 6.41667Z" stroke="#1064E5" stroke-linejoin="round"/>
<path d="M5.33333 11.0827C5.33333 11.4722 5.24157 11.8388 5.07894 12.1634C4.68157 12.9566 3.86205 13.4993 2.91667 13.4993C1.58198 13.4993 0.5 12.4174 0.5 11.0827C0.5 9.74799 1.58198 8.66602 2.91667 8.66602C4.25135 8.66602 5.33333 9.74799 5.33333 11.0827Z" stroke="#1064E5" stroke-linejoin="round"/>
<path d="M5.25 9.91732L8.75 7.58398M8.75 5.25065L5.25 4.08398" stroke="#1064E5"/>
</svg>
