<svg width="14" height="14" viewBox="0 0 14 14" fill="none" xmlns="http://www.w3.org/2000/svg">
<path d="M10.5 5.5C10.5 6.88085 9.9409 8.13017 9.03553 9.03553C8.13017 9.9409 6.88085 10.5 5.5 10.5C2.73858 10.5 0.5 8.26142 0.5 5.5C0.5 2.73858 2.73858 0.5 5.5 0.5C8.26142 0.5 10.5 2.73858 10.5 5.5Z" stroke="#1064E5" stroke-linecap="round" stroke-linejoin="round"/>
<path d="M13.1464 13.8536C13.3417 14.0488 13.6583 14.0488 13.8536 13.8536C14.0488 13.6583 14.0488 13.3417 13.8536 13.1464L13.1464 13.8536ZM8.64645 9.35355L13.1464 13.8536L13.8536 13.1464L9.35355 8.64645L8.64645 9.35355Z" fill="#1064E5"/>
</svg>
