<svg width="14" height="14" viewBox="0 0 14 14" fill="none" xmlns="http://www.w3.org/2000/svg">
<path d="M7.87508 1.31365L7.42251 1.45267L7.87508 1.31365C7.60984 0.450142 6.39082 0.450131 6.12557 1.31365L5.06218 4.77551H1.58311C0.701565 4.77551 0.337355 5.8923 1.02632 6.42178L3.88229 8.61666L2.79916 12.1428C2.54003 12.9864 3.5143 13.692 4.23072 13.1414L7.00033 11.0129L9.76994 13.1414C10.4864 13.692 11.4606 12.9864 11.2015 12.1428L10.1184 8.61666L12.9743 6.42178C13.6633 5.89229 13.2991 4.77551 12.4175 4.77551H8.93847L7.87508 1.31365ZM3.92728 8.65123C3.92722 8.65119 3.92717 8.65114 3.92712 8.6511L3.92728 8.65123Z" stroke="#1064E5" stroke-linecap="round" stroke-linejoin="round"/>
</svg>
